REM DIRINDEX 1\6,1\2\7,1\2\8,1\2\9,1\3\10,1\3\11,1\4\12,1\4\13,1\4\14,1\5\15,1\5\16,1\5\17
REM DIRNAME folder01,folder02,folder03,folder04,folder05,folder06,folder07,folder08,folder09,folder10,folder11,folder12,folder13,folder14,folder15,folder16,folder17
TITLE ""
FILE "3Q_t2_0078-0093.mp3" MP3
  TRACK 01 AUDIO
    TITLE "7:cjc041_3646"
    INDEX 01 00:00:00
  TRACK 02 AUDIO
    TITLE "0:"
    INDEX 01 00:01:07
  TRACK 03 AUDIO
    TITLE "8:cjc041_3647"
    INDEX 01 00:01:62
  TRACK 04 AUDIO
    TITLE "0:"
    INDEX 01 00:02:57
  TRACK 05 AUDIO
    TITLE "9:cjc041_3648"
    INDEX 01 00:03:35
  TRACK 06 AUDIO
    TITLE "0:"
    INDEX 01 00:04:54
  TRACK 07 AUDIO
    TITLE "7:cjc041_3649"
    INDEX 01 00:06:31
  TRACK 08 AUDIO
    TITLE "0:"
    INDEX 01 00:07:52
  TRACK 09 AUDIO
    TITLE "8:cjc041_3650"
    INDEX 01 00:08:28
  TRACK 10 AUDIO
    TITLE "0:"
    INDEX 01 00:09:22
  TRACK 11 AUDIO
    TITLE "9:cjc041_3651"
    INDEX 01 00:10:00
  TRACK 12 AUDIO
    TITLE "0:"
    INDEX 01 00:11:23
  TRACK 13 AUDIO
    TITLE "7:cjc041_3652"
    INDEX 01 00:12:73
  TRACK 14 AUDIO
    TITLE "0:"
    INDEX 01 00:14:00
  TRACK 15 AUDIO
    TITLE "8:cjc041_3653"
    INDEX 01 00:14:56
  TRACK 16 AUDIO
    TITLE "0:"
    INDEX 01 00:15:58
  TRACK 17 AUDIO
    TITLE "9:cjc041_3654"
    INDEX 01 00:16:36
  TRACK 18 AUDIO
    TITLE "0:"
    INDEX 01 00:17:43
  TRACK 19 AUDIO
    TITLE "7:cjc041_3655"
    INDEX 01 00:19:24
  TRACK 20 AUDIO
    TITLE "0:"
    INDEX 01 00:20:36
  TRACK 21 AUDIO
    TITLE "8:cjc041_3656"
    INDEX 01 00:21:19
  TRACK 22 AUDIO
    TITLE "0:"
    INDEX 01 00:22:17
  TRACK 23 AUDIO
    TITLE "9:cjc041_3657"
    INDEX 01 00:22:72
  TRACK 24 AUDIO
    TITLE "0:"
    INDEX 01 00:24:10
  TRACK 25 AUDIO
    TITLE "7:cjc041_3658"
    INDEX 01 00:25:66
  TRACK 26 AUDIO
    TITLE "0:"
    INDEX 01 00:27:14
  TRACK 27 AUDIO
    TITLE "8:cjc041_3659"
    INDEX 01 00:27:67
  TRACK 28 AUDIO
    TITLE "0:"
    INDEX 01 00:29:13
  TRACK 29 AUDIO
    TITLE "9:cjc041_3660"
    INDEX 01 00:29:64
  TRACK 30 AUDIO
    TITLE "0:"
    INDEX 01 00:31:14
  TRACK 31 AUDIO
    TITLE "7:cjc041_3661"
    INDEX 01 00:32:70
  TRACK 32 AUDIO
    TITLE "0:"
    INDEX 01 00:34:22
  TRACK 33 AUDIO
    TITLE "8:cjc041_3662"
    INDEX 01 00:34:69
  TRACK 34 AUDIO
    TITLE "0:"
    INDEX 01 00:36:13
  TRACK 35 AUDIO
    TITLE "9:cjc041_3663"
    INDEX 01 00:36:60
  TRACK 36 AUDIO
    TITLE "0:"
    INDEX 01 00:38:14
  TRACK 37 AUDIO
    TITLE "7:cjc041_3664"
    INDEX 01 00:39:62
  TRACK 38 AUDIO
    TITLE "0:"
    INDEX 01 00:40:64
  TRACK 39 AUDIO
    TITLE "8:cjc041_3665"
    INDEX 01 00:41:44
  TRACK 40 AUDIO
    TITLE "0:"
    INDEX 01 00:42:47
  TRACK 41 AUDIO
    TITLE "9:cjc041_3666"
    INDEX 01 00:43:21
  TRACK 42 AUDIO
    TITLE "0:"
    INDEX 01 00:44:26
  TRACK 43 AUDIO
    TITLE "7:cjc041_3667"
    INDEX 01 00:46:04
  TRACK 44 AUDIO
    TITLE "0:"
    INDEX 01 00:47:28
  TRACK 45 AUDIO
    TITLE "8:cjc041_3668"
    INDEX 01 00:48:08
  TRACK 46 AUDIO
    TITLE "0:"
    INDEX 01 00:49:18
  TRACK 47 AUDIO
    TITLE "9:cjc041_3669"
    INDEX 01 00:49:69
  TRACK 48 AUDIO
    TITLE "0:"
    INDEX 01 00:51:20
  TRACK 49 AUDIO
    TITLE "7:cjc041_3670"
    INDEX 01 00:53:00
  TRACK 50 AUDIO
    TITLE "0:"
    INDEX 01 00:53:74
  TRACK 51 AUDIO
    TITLE "8:cjc041_3671"
    INDEX 01 00:54:50
  TRACK 52 AUDIO
    TITLE "0:"
    INDEX 01 00:55:61
  TRACK 53 AUDIO
    TITLE "9:cjc041_3672"
    INDEX 01 00:56:35
  TRACK 54 AUDIO
    TITLE "0:"
    INDEX 01 00:57:33
  TRACK 55 AUDIO
    TITLE "7:cjc041_3673"
    INDEX 01 00:59:14
  TRACK 56 AUDIO
    TITLE "0:"
    INDEX 01 01:00:47
  TRACK 57 AUDIO
    TITLE "8:cjc041_3674"
    INDEX 01 01:01:19
  TRACK 58 AUDIO
    TITLE "0:"
    INDEX 01 01:02:32
  TRACK 59 AUDIO
    TITLE "9:cjc041_3675"
    INDEX 01 01:03:10
  TRACK 60 AUDIO
    TITLE "0:"
    INDEX 01 01:04:47
  TRACK 61 AUDIO
    TITLE "7:cjc041_3676"
    INDEX 01 01:06:32
  TRACK 62 AUDIO
    TITLE "0:"
    INDEX 01 01:07:47
  TRACK 63 AUDIO
    TITLE "8:cjc041_3677"
    INDEX 01 01:08:23
  TRACK 64 AUDIO
    TITLE "0:"
    INDEX 01 01:09:34
  TRACK 65 AUDIO
    TITLE "9:cjc041_3678"
    INDEX 01 01:10:10
  TRACK 66 AUDIO
    TITLE "0:"
    INDEX 01 01:11:29
  TRACK 67 AUDIO
    TITLE "7:cjc041_3679"
    INDEX 01 01:13:10
  TRACK 68 AUDIO
    TITLE "0:"
    INDEX 01 01:14:41
  TRACK 69 AUDIO
    TITLE "8:cjc041_3680"
    INDEX 01 01:15:19
  TRACK 70 AUDIO
    TITLE "0:"
    INDEX 01 01:16:14
  TRACK 71 AUDIO
    TITLE "9:cjc041_3681"
    INDEX 01 01:16:67
  TRACK 72 AUDIO
    TITLE "0:"
    INDEX 01 01:18:25
  TRACK 73 AUDIO
    TITLE "7:cjc041_3682"
    INDEX 01 01:20:00
  TRACK 74 AUDIO
    TITLE "0:"
    INDEX 01 01:21:10
  TRACK 75 AUDIO
    TITLE "8:cjc041_3683"
    INDEX 01 01:21:70
  TRACK 76 AUDIO
    TITLE "0:"
    INDEX 01 01:24:06
  TRACK 77 AUDIO
    TITLE "9:cjc041_3684"
    INDEX 01 01:24:57
  TRACK 78 AUDIO
    TITLE "0:"
    INDEX 01 01:25:70
  TRACK 79 AUDIO
    TITLE "7:cjc041_3685"
    INDEX 01 01:27:51
  TRACK 80 AUDIO
    TITLE "0:"
    INDEX 01 01:28:63
  TRACK 81 AUDIO
    TITLE "8:cjc041_3686"
    INDEX 01 01:29:46
  TRACK 82 AUDIO
    TITLE "0:"
    INDEX 01 01:30:40
  TRACK 83 AUDIO
    TITLE "9:cjc041_3687"
    INDEX 01 01:31:18
  TRACK 84 AUDIO
    TITLE "0:"
    INDEX 01 01:32:33
  TRACK 85 AUDIO
    TITLE "7:cjc041_3688"
    INDEX 01 01:34:12
  TRACK 86 AUDIO
    TITLE "0:"
    INDEX 01 01:35:26
  TRACK 87 AUDIO
    TITLE "8:cjc041_3689"
    INDEX 01 01:36:00
  TRACK 88 AUDIO
    TITLE "0:"
    INDEX 01 01:37:11
  TRACK 89 AUDIO
    TITLE "9:cjc041_3690"
    INDEX 01 01:37:62
  TRACK 90 AUDIO
    TITLE "0:"
    INDEX 01 01:38:73
  TRACK 91 AUDIO
    TITLE "7:cjc041_3691"
    INDEX 01 01:40:56
  TRACK 92 AUDIO
    TITLE "0:"
    INDEX 01 01:41:59
  TRACK 93 AUDIO
    TITLE "8:cjc041_3692"
    INDEX 01 01:42:43
  TRACK 94 AUDIO
    TITLE "0:"
    INDEX 01 01:43:45
  TRACK 95 AUDIO
    TITLE "9:cjc041_3693"
    INDEX 01 01:44:24
  TRACK 96 AUDIO
    TITLE "0:"
    INDEX 01 01:45:28
